<svg xmlns="http://www.w3.org/2000/svg" width="24" height="24" viewBox="0 0 24 24">
  <!-- Agumon icon from copyicon.com - Kawaii Manga Digital Monster Digimon Adventure Agumon -->
  <!-- Usage: Loading screen uses #F7941D stroke. Adjust stroke color as needed. -->
  <g transform="matrix(0.83 0 0 0.83 12 12)">
    <g>
      <!-- Head/body outline -->
      <g transform="matrix(1 0 0 1 -1.37 -5.11)">
        <path style="stroke: currentColor; stroke-width: 1.5; stroke-linecap: round; stroke-linejoin: round; fill: none;" transform=" translate(-10.63, -6.89)" d="M 11.7644 9.4961 L 9.18799 10.7838 C 8.91075 10.9225 8.60501 10.9948 8.29501 10.9948 L 4.24725 10.9948 C 3.80632 10.9948 3.37002 10.905 2.96493 10.7308 C 2.55985 10.5567 2.19447 10.3018 1.89107 9.98189 C 1.58767 9.66195 1.3526 9.28356 1.20018 8.86981 C 1.04777 8.45606 0.981209 8.01561 1.00456 7.57529 C 1.07944 6.7239 1.47496 5.93274 2.11109 5.36191 C 2.74721 4.79109 3.57642 4.48324 4.43093 4.50064 L 7.99897 4.50064 C 8.45142 3.62999 9.09522 2.87314 9.88204 2.28691 C 10.6689 1.70068 11.5783 1.3003 12.542 1.11583 C 13.5057 0.931367 14.4986 0.967605 15.4463 1.22183 C 16.394 1.47605 17.2718 1.94164 18.0138 2.58367 C 18.7558 3.22569 19.3427 4.02746 19.7305 4.92877 C 20.1183 5.83009 20.2969 6.80755 20.2528 7.78776 C 20.2088 8.76797 19.9433 9.72547 19.4762 10.5884 C 19.0091 11.4513 18.3527 12.1972 17.5561 12.7701"/>
      </g>
      <!-- Eye (left half) -->
      <g transform="matrix(1 0 0 1 1.54 -6.6)">
        <path style="stroke: currentColor; stroke-width: 1.5; fill: none;" transform=" translate(-13.54, -5.4)" d="M 13.7203 5.76587 C 13.518 5.76587 13.3539 5.60184 13.3539 5.39949 C 13.3539 5.19714 13.518 5.03311 13.7203 5.03311"/>
      </g>
      <!-- Eye (right half) -->
      <g transform="matrix(1 0 0 1 1.9 -6.6)">
        <path style="stroke: currentColor; stroke-width: 1.5; fill: none;" transform=" translate(-13.9, -5.4)" d="M 13.7203 5.76587 C 13.9227 5.76587 14.0867 5.60184 14.0867 5.39949 C 14.0867 5.19714 13.9227 5.03311 13.7203 5.03311"/>
      </g>
      <!-- Head spike -->
      <g transform="matrix(1 0 0 1 -5.73 -1.75)">
        <path style="stroke: currentColor; stroke-width: 1.5; stroke-linecap: round; stroke-linejoin: round; fill: none;" transform=" translate(-6.27, -10.25)" d="M 6.26871 10.9948 L 6.26871 9.49609"/>
      </g>
      <!-- Mouth/jaw -->
      <g transform="matrix(1 0 0 1 -2.96 -0.54)">
        <path style="stroke: currentColor; stroke-width: 1.5; stroke-linecap: round; stroke-linejoin: round; fill: none;" transform=" translate(-9.04, -11.46)" d="M 8.80695 10.9284 L 9.26614 11.9943"/>
      </g>
      <!-- Left leg -->
      <g transform="matrix(1 0 0 1 -4.31 8.75)">
        <path style="stroke: currentColor; stroke-width: 1.5; stroke-linecap: round; stroke-linejoin: round; fill: none;" transform=" translate(-7.69, -20.75)" d="M 9.72048 18.51 C 8.13265 18.9942 6.76427 20.0187 5.8525 21.4058 C 5.74594 21.5552 5.68258 21.7311 5.66935 21.9141 C 5.65612 22.0972 5.69353 22.2803 5.77749 22.4435 C 5.86145 22.6066 5.98871 22.7436 6.14533 22.8392 C 6.30194 22.9348 6.48186 22.9855 6.66537 22.9857 L 9.65502 22.9857"/>
      </g>
      <!-- Left arm -->
      <g transform="matrix(1 0 0 1 -5.23 0.49)">
        <path style="stroke: currentColor; stroke-width: 1.5; stroke-linecap: round; stroke-linejoin: round; fill: none;" transform=" translate(-6.77, -12.49)" d="M 10.2657 13.9923 L 5.26923 13.9923 C 5.00681 13.9924 4.74694 13.9408 4.50448 13.8405 C 4.26201 13.7401 4.04171 13.5929 3.85615 13.4074 C 3.6706 13.2218 3.52343 13.0015 3.42307 12.7591 C 3.3227 12.5166 3.27111 12.2567 3.27124 11.9943 L 3.27124 11.9943 C 3.27111 11.8631 3.29684 11.7332 3.34697 11.6119 C 3.39709 11.4906 3.47062 11.3805 3.56335 11.2876 C 3.65608 11.1948 3.7662 11.1212 3.88741 11.0709 C 4.00862 11.0207 4.13854 10.9948 4.26974 10.9948"/>
      </g>
      <!-- Body + right leg + tail -->
      <g transform="matrix(1 0 0 1 3.78 5.88)">
        <path style="stroke: currentColor; stroke-width: 1.5; stroke-linecap: round; stroke-linejoin: round; fill: none;" transform=" translate(-15.78, -17.88)" d="M 17.5561 12.7701 L 18.2918 14.1799 C 18.4788 14.5382 18.7379 14.854 19.0528 15.1073 C 19.3677 15.3607 19.7316 15.5462 20.1217 15.6522 C 20.5117 15.7582 20.9195 15.7823 21.3193 15.7231 C 21.7192 15.664 22.1024 15.5227 22.4451 15.3083 L 23 14.9615 C 23 18.51 21.7299 20.335 19.7583 20.4875 L 19.7583 21.9862 C 19.7583 22.2513 19.653 22.5055 19.4655 22.6929 C 19.2781 22.8804 19.0239 22.9857 18.7588 22.9857 L 13.2191 22.9857 C 13.0356 22.9855 12.8557 22.9348 12.6991 22.8392 C 12.5425 22.7436 12.4152 22.6066 12.3313 22.4435 C 12.2473 22.2803 12.2099 22.0972 12.2231 21.9141 C 12.2364 21.7311 12.2997 21.5552 12.4063 21.4058 L 12.758 20.9173 C 12.9076 20.7108 13.0768 20.519 13.2631 20.3448 C 11.5494 19.8944 8.57346 18.3488 8.57346 16.4934 L 8.56076 13.9952"/>
      </g>
      <!-- Belly/chest detail -->
      <g transform="matrix(1 0 0 1 3.05 3.98)">
        <path style="stroke: currentColor; stroke-width: 1.5; stroke-linecap: round; stroke-linejoin: round; fill: none;" transform=" translate(-15.05, -15.98)" d="M 16.8282 16.4641 L 15.5581 17.2614 C 15.3913 17.3659 15.2056 17.4366 15.0115 17.4694 C 14.8173 17.5022 14.6187 17.4964 14.4268 17.4524 C 14.2349 17.4084 14.0536 17.327 13.8931 17.213 C 13.7327 17.0989 13.5963 16.9543 13.4917 16.7875 C 13.3872 16.6207 13.3165 16.435 13.2837 16.2409 C 13.2509 16.0467 13.2567 15.8481 13.3007 15.6562 C 13.3447 15.4643 13.4261 15.283 13.5402 15.1225 C 13.6542 14.9621 13.7988 14.8257 13.9656 14.7211 L 14.3564 14.4779"/>
      </g>
    </g>
  </g>
</svg>
