<svg xmlns="http://www.w3.org/2000/svg" viewBox="0 0 400 200">
  <defs>
    <pattern id="grid" width="20" height="20" patternUnits="userSpaceOnUse">
      <path d="M 20 0 L 0 0 0 20" fill="none" stroke="rgba(0,200,255,0.15)" stroke-width="0.5"/>
    </pattern>

    <filter id="glow" x="-50%" y="-50%" width="200%" height="200%">
      <feGaussianBlur stdDeviation="2" result="coloredBlur"/>
      <feMerge>
        <feMergeNode in="coloredBlur"/>
        <feMergeNode in="SourceGraphic"/>
      </feMerge>
    </filter>

    <filter id="strongGlow" x="-50%" y="-50%" width="200%" height="200%">
      <feGaussianBlur stdDeviation="4" result="coloredBlur"/>
      <feMerge>
        <feMergeNode in="coloredBlur"/>
        <feMergeNode in="coloredBlur"/>
        <feMergeNode in="SourceGraphic"/>
      </feMerge>
    </filter>

    <linearGradient id="bgGradient" x1="0%" y1="0%" x2="100%" y2="100%">
      <stop offset="0%" style="stop-color:#0A3055"/>
      <stop offset="100%" style="stop-color:#0F4C81"/>
    </linearGradient>
  </defs>

  <!-- Background -->
  <rect width="400" height="200" fill="url(#bgGradient)" rx="12"/>
  <rect width="400" height="200" fill="url(#grid)" rx="12"/>

  <!-- Corner circuit accents -->
  <g filter="url(#glow)">
    <path d="M 0 35 L 0 12 Q 0 0 12 0 L 35 0" fill="none" stroke="#00C8FF" stroke-width="2"/>
    <circle cx="0" cy="35" r="3" fill="#00C8FF"/>
    <circle cx="35" cy="0" r="3" fill="#00C8FF"/>

    <path d="M 400 35 L 400 12 Q 400 0 388 0 L 365 0" fill="none" stroke="#00C8FF" stroke-width="2"/>
    <circle cx="400" cy="35" r="3" fill="#00C8FF"/>
    <circle cx="365" cy="0" r="3" fill="#00C8FF"/>

    <path d="M 0 165 L 0 188 Q 0 200 12 200 L 35 200" fill="none" stroke="#00C8FF" stroke-width="2"/>
    <circle cx="0" cy="165" r="3" fill="#00C8FF"/>
    <circle cx="35" cy="200" r="3" fill="#00C8FF"/>

    <path d="M 400 165 L 400 188 Q 400 200 388 200 L 365 200" fill="none" stroke="#00C8FF" stroke-width="2"/>
    <circle cx="400" cy="165" r="3" fill="#00C8FF"/>
    <circle cx="365" cy="200" r="3" fill="#00C8FF"/>
  </g>

  <!-- Main text - centered -->
  <text x="200" y="95" font-family="'Segoe UI', Arial, sans-serif" font-size="72" font-weight="700" fill="#FFFFFF" text-anchor="middle" letter-spacing="-2">
    Digi<tspan fill="#F7941D">Lab</tspan>
  </text>

  <!-- Subtitle -->
  <text x="200" y="130" font-family="'Segoe UI', Arial, sans-serif" font-size="16" fill="rgba(255,255,255,0.7)" text-anchor="middle" letter-spacing="4">
    DIGIMON TCG TRACKER
  </text>

  <!-- Decorative circuit line under subtitle -->
  <g transform="translate(200, 155)">
    <line x1="-120" y1="0" x2="120" y2="0" stroke="rgba(0,200,255,0.3)" stroke-width="1"/>
    <line x1="-60" y1="0" x2="60" y2="0" stroke="#00C8FF" stroke-width="1.5" filter="url(#glow)"/>
    <circle cx="-60" cy="0" r="4" fill="#00C8FF" filter="url(#strongGlow)"/>
    <circle cx="60" cy="0" r="4" fill="#F7941D" filter="url(#glow)"/>
    <circle cx="0" cy="0" r="2" fill="#00C8FF"/>
  </g>

  <!-- Side accent dots -->
  <circle cx="50" cy="100" r="3" fill="#00C8FF" filter="url(#glow)" opacity="0.6"/>
  <circle cx="350" cy="100" r="3" fill="#00C8FF" filter="url(#glow)" opacity="0.6"/>
</svg>
